<?xml version="1.0" encoding="utf-8"?>
<!-- Generator: Adobe Illustrator 23.0.3, SVG Export Plug-In . SVG Version: 6.00 Build 0)  -->
<svg version="1.1" id="Layer_1" xmlns="http://www.w3.org/2000/svg" xmlns:xlink="http://www.w3.org/1999/xlink" x="0px" y="0px"
	 viewBox="0 0 760 170" style="enable-background:new 0 0 760 170;" xml:space="preserve">
<style type="text/css">
	.st0{fill-rule:evenodd;clip-rule:evenodd;fill:#1361B0;}
	.st1{fill-rule:evenodd;clip-rule:evenodd;}
</style>
<g>
	<path class="st0" d="M133.34,40.02h51.35c4.35,0,7.68,1.93,10.03,5.8c2.48,3.93,3.17,8.51,2.05,13.75l-0.39,1.72
		c-1.3,6.15-4.54,11.23-9.69,15.2c4.45,4.04,5.94,9.55,4.47,16.55l-0.39,1.85c-1.11,5.28-3.71,9.84-7.82,13.68
		c-4.09,3.91-8.23,5.86-12.44,5.86h-52.9L133.34,40.02L133.34,40.02z M171.8,59.58c0.48-1.87,0.24-3.54-0.7-5.02
		c-0.89-1.46-2.09-2.17-3.56-2.17h-11.83l-4.02,18.5h11.84c1.51,0,3.01-0.69,4.52-2.11c1.49-1.39,2.45-3.02,2.86-4.89L171.8,59.58
		L171.8,59.58z M166.68,90.42c0.48-1.74,0.24-3.37-0.7-4.84c-0.89-1.45-2.11-2.17-3.61-2.17h-13.23l-4.01,18.63h13.28
		c1.44,0,2.94-0.74,4.52-2.24c1.54-1.39,2.48-3.04,2.86-4.91L166.68,90.42L166.68,90.42z M217.91,114.41
		c-4.38,0-7.77-1.95-10.18-5.86c-2.34-4.1-2.99-8.66-1.95-13.68l11.62-54.85h24.97l-11.62,54.89c-0.38,1.87-0.12,3.5,0.75,4.89
		c0.86,1.5,2.05,2.24,3.56,2.24h30.77l-2.55,12.38H217.91L217.91,114.41z M291.72,114.41c-4.3,0-7.7-1.95-10.17-5.86
		c-2.35-4.1-3-8.66-1.95-13.68l11.62-54.85h24.97l-11.64,54.89c-0.36,1.87-0.1,3.5,0.75,4.89c0.87,1.5,2.07,2.24,3.56,2.24h7.43
		c1.44,0,2.94-0.74,4.52-2.24c1.54-1.39,2.48-3.02,2.86-4.89l11.57-54.89h24.97l-11.57,54.85c-1.11,5.28-3.71,9.84-7.82,13.68
		c-4.09,3.91-8.23,5.86-12.44,5.86H291.72L291.72,114.41z M376.3,114.41c-4.38,0-7.77-1.95-10.18-5.86
		c-2.4-3.84-3.05-8.4-1.95-13.68l7.48-35.31c1.1-5.19,3.66-9.77,7.72-13.75c4.14-3.87,8.35-5.8,12.63-5.8h45.37l-2.55,12.38h-30.84
		c-1.47,0-2.98,0.72-4.5,2.17c-1.51,1.43-2.46,3.11-2.86,5.02l-2.46,11.31h29.39l-2.6,12.51H391.6l-2.47,11.49
		c-0.36,1.87-0.12,3.52,0.75,4.91c0.87,1.5,2.05,2.24,3.56,2.24h30.79l-2.57,12.38H376.3L376.3,114.41z M450.88,40.02l-15.75,74.39
		h52.9c4.21,0,8.35-1.95,12.44-5.86c4.11-3.84,6.71-8.4,7.82-13.68l0.39-1.85c1.47-6.99-0.02-12.51-4.47-16.55
		c5.15-3.97,8.39-9.05,9.69-15.2l0.39-1.72c1.11-5.23,0.43-9.82-2.05-13.75c-2.34-3.87-5.68-5.8-10.03-5.8H450.88L450.88,40.02z
		 M489.34,59.58l-0.89,4.32c-0.41,1.87-1.37,3.5-2.86,4.89c-1.51,1.41-3.01,2.11-4.52,2.11h-11.84l4.02-18.5h11.83
		c1.47,0,2.67,0.72,3.56,2.17C489.58,56.04,489.82,57.71,489.34,59.58L489.34,59.58z M484.22,90.42l-0.89,4.47
		c-0.38,1.87-1.32,3.52-2.86,4.91c-1.57,1.5-3.08,2.24-4.52,2.24h-13.28l4.01-18.63h13.23c1.51,0,2.72,0.72,3.61,2.17
		C484.46,87.05,484.7,88.68,484.22,90.42L484.22,90.42z M560.12,40.02l-15.75,74.39H519.4l15.75-74.39H560.12L560.12,40.02z
		 M608.77,94.89c0.41-1.82,0.15-3.45-0.74-4.89c-0.84-1.46-2.04-2.17-3.58-2.17h-13.23l-5.66,26.58h-24.97l15.75-74.39h51.35
		c4.35,0,7.68,1.93,10.03,5.8c2.46,3.93,3.15,8.51,2.05,13.75l-1.35,6.1c-1.23,6.12-4.45,11.25-9.64,15.42
		c4.48,3.89,5.96,9.4,4.42,16.52l-3.61,16.81h-24.92L608.77,94.89L608.77,94.89z M614.84,59.58c0.39-1.95,0.15-3.63-0.75-5.04
		c-0.91-1.43-2.09-2.15-3.56-2.15H598.7l-4.93,23.06h11.79c1.47,0,3-0.74,4.57-2.21c1.44-1.46,2.38-3.11,2.84-4.97L614.84,59.58
		L614.84,59.58z M660.89,40.02h52.85c4.31,0,7.63,1.93,9.98,5.8c2.48,3.93,3.17,8.51,2.05,13.75l-7.46,35.31
		c-1.11,5.28-3.71,9.84-7.82,13.68c-4.09,3.91-8.23,5.86-12.44,5.86h-52.9L660.89,40.02L660.89,40.02z M700.81,59.58
		c0.48-1.87,0.24-3.54-0.7-5.02c-0.91-1.46-2.11-2.17-3.61-2.17h-13.23l-10.58,49.64h13.28c1.44,0,2.94-0.74,4.52-2.24
		c1.54-1.39,2.48-3.02,2.86-4.89L700.81,59.58z"/>
	<path class="st1" d="M579.65,10.62H729.9c1.65,0,3.34,0.16,5.06,0.47c5.67,1.01,10.79,3.67,14.76,7.43
		c4.06,3.84,6.89,8.77,7.87,14.22c0.24,1.34,0.37,2.79,0.36,4.32l-0.32,93.28c-0.02,6.81-2.99,12.95-7.76,17.34
		c-4.71,4.34-11.21,7.03-18.36,7.03h-33.03c-2.7,7.78-10.75,13.47-20.19,13.47H178.48c-5.53,0-10.58-1.95-14.36-5.13l-75.36-3.31
		c29.13-0.24,58.24-0.35,87.35-0.91l-16.27-0.8c-0.48-0.81-0.9-1.66-1.25-2.54L2.05,148.26c61.58-1.96,123.19-3.5,184.73-6.26
		c-49.29-1.49-98.58-2.35-147.9-3.4c44.21-1.05,88.77-1.21,132.88-3.39l-7.68-0.28c3.78-3.2,8.85-5.16,14.4-5.16h499.81
		c9.44,0,17.49,5.68,20.19,13.47h30.97c4.55,0,8.71-1.74,11.74-4.53c2.98-2.74,4.83-6.45,4.84-10.45l0.32-93.28
		c0-0.71-0.07-1.47-0.22-2.26c-0.47-2.61-1.78-4.94-3.65-6.71c-1.96-1.86-4.58-3.19-7.56-3.72c-0.88-0.16-1.87-0.24-2.96-0.24
		H579.65c0.36-1.85,0.56-3.76,0.56-5.72C580.2,14.38,580.01,12.47,579.65,10.62L579.65,10.62z M177.53,162.09h7.49l3.07-4.59h9.91
		l0.64,4.59h7.64l-4-25.88h-6.86L177.53,162.09L177.53,162.09z M191.66,151.96h5.76l-0.91-7.3L191.66,151.96L191.66,151.96z
		 M218.42,162.57c7.3,0,13.01-3.63,15.24-11.93l3.82-14.24h-7.23l-3.88,14.46c-0.96,3.6-3.29,5.29-6.15,5.29
		c-2.86,0-4.26-1.76-3.27-5.47l3.83-14.28h-7.23l-3.87,14.43C207.52,158.86,211.12,162.57,218.42,162.57L218.42,162.57z
		 M240.31,162.09h7.12l5.21-19.46h7.71l1.67-6.24h-22.54l-1.67,6.24h7.71L240.31,162.09L240.31,162.09z M269.16,162.6
		c7.93,0,15.48-5.98,17.46-13.36l0.02-0.07c1.98-7.38-2.31-13.29-10.24-13.29c-7.93,0-15.48,5.98-17.46,13.36l-0.02,0.07
		C256.94,156.69,261.23,162.6,269.16,162.6L269.16,162.6z M270.95,156.18c3.93,0,7.38-3.16,8.37-6.86l0.02-0.07
		c0.99-3.71-0.82-6.94-4.75-6.94c-3.89,0-7.34,3.16-8.34,6.86l-0.02,0.07C265.25,152.95,267.06,156.18,270.95,156.18L270.95,156.18z
		 M296.26,162.09h7.12l2.09-7.78h3.05h0.07l3.09,7.78h8.22l-3.73-8.96c3.56-1.36,6.35-3.96,7.4-7.89l0.02-0.07
		c0.68-2.53,0.44-4.51-0.67-5.98c-1.25-1.76-3.69-2.79-7.62-2.79h-12.15L296.26,162.09L296.26,162.09z M306.96,148.73h4.7
		c2.42,0,4.13-1.17,4.63-3.05l0.02-0.07c0.54-2.02-0.65-3.05-3.04-3.05h-4.66L306.96,148.73L306.96,148.73z M321.87,162.09h20.85
		l1.62-6.06h-13.8l1.09-4.07h12.33l1.5-5.62h-12.33l1.04-3.89h13.62l1.62-6.06h-20.67L321.87,162.09L321.87,162.09z M345.57,162.09
		h7.05l3.78-14.1l7.2,14.1h6.24l6.89-25.7h-7.05l-3.64,13.58l-6.93-13.58h-6.64L345.57,162.09L345.57,162.09z M379.88,162.09H387
		l5.21-19.46h7.71l1.67-6.24h-22.54l-1.67,6.24h7.71L379.88,162.09L379.88,162.09z M391.69,162.09h7.49l3.06-4.59h9.91l0.64,4.59
		h7.64l-4-25.88h-6.86L391.69,162.09L391.69,162.09z M405.82,151.96h5.76l-0.91-7.3L405.82,151.96L405.82,151.96z M422.14,162.09
		h19.57l1.67-6.24h-12.44l5.21-19.45h-7.12L422.14,162.09L422.14,162.09z M464.12,162.53c6.24,0,11.22-3.12,12.63-8.37l0.02-0.07
		c1.29-4.81-1.87-6.72-7.44-8c-3.34-0.81-4.09-1.32-3.77-2.5l0.02-0.07c0.25-0.92,1.29-1.65,3.01-1.65c2.28,0,4.61,0.88,6.52,2.53
		l4.91-5.03c-2.19-2.24-5.29-3.41-9.66-3.41c-6.17,0-10.87,3.45-12.15,8.22l-0.02,0.07c-1.42,5.29,2.39,6.83,7.53,8.08
		c3.27,0.81,3.96,1.39,3.67,2.46l-0.02,0.07c-0.3,1.1-1.5,1.76-3.41,1.76c-2.97,0-5.51-1.06-7.51-3.08l-5.23,4.74
		C455.62,161.1,459.56,162.53,464.12,162.53L464.12,162.53z M490.07,162.6c7.93,0,15.48-5.98,17.46-13.36l0.02-0.07
		c1.98-7.38-2.31-13.29-10.24-13.29c-7.93,0-15.48,5.98-17.46,13.36l-0.02,0.07C477.85,156.69,482.14,162.6,490.07,162.6
		L490.07,162.6z M491.87,156.18c3.93,0,7.38-3.16,8.37-6.86l0.02-0.07c0.99-3.71-0.82-6.94-4.75-6.94c-3.89,0-7.34,3.16-8.34,6.86
		l-0.02,0.07C486.16,152.95,487.98,156.18,491.87,156.18L491.87,156.18z M507.01,162.09h7.12l2.46-9.18h12.15l1.58-5.91h-12.15
		l1.17-4.37h13.44l1.67-6.24h-20.56L507.01,162.09L507.01,162.09z M536.29,162.09h7.12l5.21-19.46h7.71l1.67-6.24h-22.54l-1.67,6.24
		h7.71L536.29,162.09L536.29,162.09z M560.27,162.27h6.2l9.1-14.79l1.21,14.79h6.2l15.52-25.88h-7.38l-8.46,14.87l-0.95-14.94h-6.13
		l-8.96,14.94l-0.49-14.87h-7.53L560.27,162.27L560.27,162.27z M588.32,162.09h7.49l3.06-4.59h9.91l0.64,4.59h7.63l-4-25.88h-6.86
		L588.32,162.09L588.32,162.09z M602.45,151.96h5.76l-0.91-7.3L602.45,151.96L602.45,151.96z M618.77,162.09h7.12l2.08-7.78h3.05
		h0.07l3.09,7.78h8.22l-3.73-8.96c3.56-1.36,6.35-3.96,7.4-7.89l0.02-0.07c0.68-2.53,0.44-4.51-0.67-5.98
		c-1.25-1.76-3.69-2.79-7.62-2.79h-12.15L618.77,162.09L618.77,162.09z M629.47,148.73h4.7c2.42,0,4.13-1.17,4.63-3.05l0.02-0.07
		c0.54-2.02-0.65-3.05-3.04-3.05h-4.66L629.47,148.73L629.47,148.73z M644.38,162.09h20.85l1.62-6.06h-13.8l1.09-4.07h12.33
		l1.5-5.62h-12.33l1.04-3.89h13.62l1.62-6.06h-20.67L644.38,162.09z"/>
	<path class="st0" d="M551.48,30.84c7.99,0,14.5-6.52,14.5-14.5s-6.52-14.5-14.5-14.5c-7.99,0-14.5,6.52-14.5,14.5
		S543.49,30.84,551.48,30.84z"/>
</g>
</svg>
