<?xml version="1.0" encoding="UTF-8"?>
<svg width="150px" height="150px" viewBox="0 0 150 150" version="1.1" xmlns="http://www.w3.org/2000/svg" xmlns:xlink="http://www.w3.org/1999/xlink">
    <!-- Generator: Sketch 52.6 (67491) - http://www.bohemiancoding.com/sketch -->
    <title>Lula - Car</title>
    <desc>Created with Sketch.</desc>
    <g id="Lula---Car" stroke="none" stroke-width="1" fill="none" fill-rule="evenodd">
        <g id="car-insurance" transform="translate(10.000000, 29.000000)" fill="#333333">
            <path d="M31.5681818,103 L21.4318182,103 C17.3325184,102.987371 14.0124789,99.6274914 14,95.479 L14,82.3 C14,81.0297451 15.0175347,80 16.2727273,80 L36.7272727,80 C37.9824653,80 39,81.0297451 39,82.3 L39,95.479 C38.9875211,99.6274914 35.6674816,102.987371 31.5681818,103 Z M18.5454545,84.6 L18.5454545,95.479 C18.5454545,97.0922238 19.8377236,98.4 21.4318182,98.4 L31.5681818,98.4 C32.3336931,98.4 33.0678509,98.0922527 33.6091491,97.5444589 C34.1504473,96.9966651 34.4545455,96.2536974 34.4545455,95.479 L34.4545455,84.6 L18.5454545,84.6 Z" id="Shape" fill-rule="nonzero"></path>
            <path d="M87.7774014,84.9999605 L81.7399436,84.9999605 C81.1274343,85.0035889 80.5387172,84.7572066 80.1038386,84.3152388 L78.4907773,82.6388511 L52.7278846,82.6388511 L51.1148234,84.3152388 C50.6799448,84.7572066 50.0912277,85.0035889 49.4787184,84.9999605 L17.2174932,84.9999605 C12.1268124,84.9999605 8.00000028,80.7715417 8.00000028,75.5555229 L8.00000028,52.8888726 C7.9994221,50.2016493 8.89360961,47.5946343 10.5348108,45.4986002 L17.4479305,36.6208288 L25.6745429,11.2861249 C27.8777302,4.5355131 34.0516185,-0.0115220174 40.9986249,2.19298249e-05 L90.220037,2.19298249e-05 C97.1585653,-0.00135476386 103.320571,4.54376344 105.521075,11.2861249 L113.747688,36.6208288 L120.660807,45.5222112 C121.855912,47.0553741 122.649096,48.8758521 122.965181,50.8110963 C123.103428,51.6171821 122.824403,52.4391311 122.227781,52.983317 C121.636106,53.5174606 120.818946,53.7045125 120.06167,53.4791499 L107.088049,49.5833194 L88.6530633,54.9666489 L88.6530633,73.4305244 C88.6522817,76.2783606 89.0957046,79.1080247 89.966556,81.8124628 C90.202722,82.5513351 90.0687437,83.3619762 89.6083204,83.979981 C89.1478971,84.5979858 88.4200512,84.9441314 87.6621828,84.9055161 L87.7774014,84.9999605 Z M82.6847366,80.2777417 L84.7586725,80.2777417 C84.2797015,78.060451 84.0401433,75.7959176 84.0443168,73.5249688 L84.0443168,53.2666501 C84.0049535,52.1758085 84.7005158,51.1995238 85.7265093,50.9055407 L106.465868,44.8611006 C106.872807,44.7441795 107.303291,44.7441795 107.71023,44.8611006 L116.305542,47.458321 L109.899384,39.2652713 C109.737825,39.0400892 109.606098,38.7939661 109.507641,38.5333274 L101.142766,12.7972349 C99.5763047,7.97828561 95.1771966,4.72609731 90.220037,4.72224074 L40.9986249,4.72224074 C36.0414653,4.72609731 31.6423573,7.97828561 30.0758958,12.7972349 L21.8262396,38.5333274 C21.7277828,38.7939661 21.5960554,39.0400892 21.4344962,39.2652713 L14.2448517,48.473598 C13.2225844,49.7102463 12.6450993,51.2686765 12.6087467,52.8888726 L12.6087467,75.5555229 C12.6087467,78.1635323 14.6721528,80.2777417 17.2174932,80.2777417 L48.5339254,80.2777417 L50.1469866,78.601354 C50.5818652,78.1593862 51.1705823,77.9130038 51.7830916,77.9166323 L79.4355703,77.9166323 C80.0480796,77.9130038 80.6367967,78.1593862 81.0716753,78.601354 L82.6847366,80.2777417 Z" id="Shape" fill-rule="nonzero"></path>
            <path d="M36.9997878,72 L22.9999293,72 C19.1339751,72 16,68.9779221 16,65.25 L16,60.75 C16,57.0220779 19.1339751,54 22.9999293,54 L25.6832355,54 L37.9331117,55.755 C41.4307459,56.2086139 44.0312088,59.1020153 43.999717,62.505 L43.999717,65.25 C43.999717,68.9779221 40.8657419,72 36.9997878,72 Z M22.9999293,58.5 C21.7112779,58.5 20.6666195,59.5073593 20.6666195,60.75 L20.6666195,65.25 C20.6666195,66.4926407 21.7112779,67.5 22.9999293,67.5 L36.9997878,67.5 C38.2884392,67.5 39.3330975,66.4926407 39.3330975,65.25 L39.3330975,62.4825 C39.3416698,61.3380922 38.4580248,60.3698027 37.2797849,60.2325 L25.1699073,58.5 L22.9999293,58.5 Z" id="Shape" fill-rule="nonzero"></path>
            <path d="M77.0004525,71.9991502 L53.0918587,71.9991502 C50.8565065,72.0415732 48.9118633,70.4912953 48.4763,68.3196073 L47.0916324,61.4633161 C46.8177498,60.1222056 47.1649409,58.7301183 48.0378219,57.6695017 C48.9374266,56.5849717 50.2902885,55.9698615 51.7071911,56.0011375 L78.3851201,56.0011375 C79.7698147,55.9977294 81.0828985,56.6101606 81.9621781,57.6695017 C82.8350591,58.7301183 83.1822502,60.1222056 82.9083676,61.4633161 L81.5237,68.3196073 C81.0945582,70.4571881 79.2011825,71.9973995 77.0004525,71.9991502 Z M51.6148799,60.5719983 L52.9995475,67.4282894 L77.0004525,67.4282894 L78.3851201,60.5719983 L51.6148799,60.5719983 Z" id="Shape" fill-rule="nonzero"></path>
            <path d="M95.0288898,46.9996752 L34.9981583,46.9996752 C32.1356746,47.005646 29.4322957,45.6459589 27.6790268,43.3184566 C25.9234157,40.8273374 25.5148874,37.5907118 26.5938559,34.7210301 L34.1438748,13.7499594 C35.1170902,10.9182982 37.712055,9.01846814 40.6318116,9 L89.3952366,9 C92.3149931,9.01846814 94.9099579,10.9182982 95.8831733,13.7499594 L103.410103,34.7447799 C104.627651,38.0049075 103.928307,41.6939677 101.609182,44.2446987 C99.8606137,46.028814 97.4916958,47.020611 95.0288898,46.9996752 Z M40.6318116,13.7499594 C39.6740654,13.7566175 38.8197554,14.3708114 38.4845585,15.2936962 L30.9345395,36.3597661 C30.3901868,37.6897546 30.5470847,39.2139942 31.3501369,40.3972316 C32.2219337,41.5621448 33.5689806,42.2461822 34.9981583,42.2497158 L95.0288898,42.2497158 C96.2516162,42.2444129 97.4223837,41.7404911 98.2844026,40.8484777 C99.3836308,39.6232372 99.690079,37.8524306 99.0694198,36.3122665 L91.5424896,15.317446 C91.2148908,14.3852091 90.3588647,13.7603134 89.3952366,13.7499594 L40.6318116,13.7499594 Z" id="Shape" fill-rule="nonzero"></path>
            <path d="M121.222222,39 L116.777778,39 C112.48223,39 109,35.418278 109,31 C109,26.581722 112.48223,23 116.777778,23 L121.222222,23 C125.51777,23 129,26.581722 129,31 C129,35.418278 125.51777,39 121.222222,39 Z M116.777778,27.5714286 C114.936829,27.5714287 113.444445,29.1064523 113.444445,31 C113.444445,32.8935477 114.936829,34.4285713 116.777778,34.4285714 L121.222222,34.4285714 C123.063171,34.4285714 124.555556,32.8935477 124.555556,31 C124.555556,29.1064523 123.063171,27.5714286 121.222222,27.5714286 L116.777778,27.5714286 Z" id="Shape" fill-rule="nonzero"></path>
            <path d="M12.2222222,39 L7.77777778,39 C3.48222972,39 0,35.418278 0,31 C0,26.581722 3.48222972,23 7.77777778,23 L12.2222222,23 C16.5177703,23 20,26.581722 20,31 C20,35.418278 16.5177703,39 12.2222222,39 Z M7.77777778,27.5714286 C5.93682867,27.5714287 4.44444458,29.1064523 4.44444458,31 C4.44444458,32.8935477 5.93682867,34.4285713 7.77777778,34.4285714 L12.2222222,34.4285714 C14.0631714,34.4285714 15.5555556,32.8935477 15.5555556,31 C15.5555556,29.1064523 14.0631714,27.5714286 12.2222222,27.5714286 L7.77777778,27.5714286 Z" id="Shape" fill-rule="nonzero"></path>
            <path d="M104.107788,81.9999618 C103.492775,82.0034723 102.901652,81.7650974 102.464996,81.3374934 L96.6805194,75.6265595 C96.0936066,75.0471086 95.864391,74.2025405 96.079216,73.4109958 C96.294041,72.6194511 96.9202696,72.0011843 97.7220075,71.7890905 C98.5237454,71.5769968 99.3791895,71.8032981 99.9661024,72.3827491 L104.107788,76.4946215 L114.033951,66.6718151 C114.941239,65.7760616 116.412245,65.7760616 117.319533,66.6718151 C118.226822,67.5675687 118.226822,69.0198721 117.319533,69.9156256 L105.750579,81.3374934 C105.313924,81.7650974 104.7228,82.0034723 104.107788,81.9999618 Z" id="Path"></path>
            <path d="M106.5,101.974716 C106.289898,102.008428 106.075646,102.008428 105.865544,101.974716 C101.807163,100.849461 98.0248984,98.9189473 94.7508102,96.3016218 C93.2106145,95.1066793 91.7938464,93.7648775 90.5211019,92.2957226 C89.1452094,90.7293244 87.9328461,89.0304074 86.9023515,87.2246709 C84.2921786,82.6371707 82.9472822,77.4558388 83.0016205,72.1967599 L83.0016205,52.3293521 C82.9614805,51.2595597 83.6707661,50.3021137 84.7170022,50.0138034 L105.865544,44.0859987 C106.280511,43.9713338 106.719489,43.9713338 107.134456,44.0859987 L128.282998,50.0138034 C129.329234,50.3021137 130.038519,51.2595597 129.99838,52.3293521 L129.99838,72.1967599 C129.993462,83.3754646 123.841691,93.6737797 113.925488,99.1034357 C111.788062,100.327801 109.507704,101.291947 107.134456,101.974716 C106.924354,102.008428 106.710102,102.008428 106.5,101.974716 Z M87.7012964,54.0891691 L87.7012964,72.1967599 C87.6883403,76.6667189 88.854366,81.063281 91.085063,84.9554332 C91.9684865,86.4851124 92.9993399,87.9274089 94.1633507,89.2623538 C95.2397748,90.529721 96.4444097,91.6857435 97.7586028,92.7125213 C100.348937,94.7871241 103.315187,96.3586109 106.5,97.3436187 C108.284975,96.7502955 110.001908,95.9742041 111.622647,95.02807 C120.038961,90.4178587 125.269708,81.6854586 125.298704,72.1967599 L125.298704,54.0891691 L106.5,48.7170961 L87.7012964,54.0891691 Z" id="Shape" fill-rule="nonzero"></path>
        </g>
    </g>
</svg>