<?xml version="1.0" encoding="UTF-8"?>
<svg width="150px" height="150px" viewBox="0 0 150 150" version="1.1" xmlns="http://www.w3.org/2000/svg" xmlns:xlink="http://www.w3.org/1999/xlink">
    <!-- Generator: Sketch 52.6 (67491) - http://www.bohemiancoding.com/sketch -->
    <title>Lula - Pricing</title>
    <desc>Created with Sketch.</desc>
    <g id="Lula---Pricing" stroke="none" stroke-width="1" fill="none" fill-rule="evenodd">
        <g id="money-Insurance" transform="translate(19.000000, 19.000000)" fill="#333333">
            <path d="M75.2181957,100.999679 L11.3778504,100.999679 C5.61190892,101.042663 0.729741351,96.7629682 0.0264376128,91.0490621 C-0.00881253759,90.5888474 -0.00881253759,90.1266171 0.0264376128,89.6664024 L0.0264376128,44.3332955 C0.0268339345,38.7482652 4.10249639,33.9961127 9.6297328,33.1360181 C10.2079471,33.0448347 10.7924681,32.9993604 11.3778504,33.0000188 L97.6485873,33.0000188 C100.639018,32.9945883 103.510797,34.1675299 105.639982,36.2640025 C107.050965,37.691688 108.074493,39.4546475 108.614052,41.3866435 C108.867912,42.3484336 108.997612,43.3386731 109,44.3332955 L109,62.4665382 C109,63.1799846 108.663557,63.8517947 108.091887,64.2798625 C107.525766,64.700719 106.795793,64.8347524 106.116741,64.6425274 L90.8377396,60.1998829 L72.6754792,65.3451905 L72.6754792,83.0931019 C72.7142343,88.1734846 74.2456424,93.1307872 77.0798274,97.350364 C77.5356693,98.0229394 77.5962922,98.8875978 77.2387471,99.6170193 C76.89341,100.432265 76.1043426,100.972223 75.2181957,100.999679 Z M11.3778504,37.5333295 C11.0225589,37.5099285 10.666109,37.5099285 10.3108176,37.5333295 C6.97088169,38.0620184 4.5252853,40.957302 4.56700271,44.3332955 L4.56700271,89.6664024 C4.56700271,89.9610676 4.56700271,90.2103996 4.56700271,90.4823983 C4.98262382,93.9161436 7.9136784,96.4913506 11.3778504,96.4663684 L71.2452012,96.4663684 C69.8766313,93.719397 68.9496093,90.7744939 68.4981593,87.7397453 C68.2517934,86.2412622 68.1302954,84.7249644 68.1349141,83.2064346 L68.1349141,63.7358652 C68.0961331,62.6886618 68.7814054,61.7514325 69.7922204,61.4692099 L90.2247633,55.6665722 C90.625682,55.5543284 91.0497972,55.5543284 91.4507159,55.6665722 L104.459435,59.4518866 L104.459435,44.3332955 C104.451104,43.7372801 104.374939,43.1441418 104.232407,42.5653043 C103.900408,41.4166042 103.292535,40.3661978 102.461586,39.5053196 C101.181821,38.2380232 99.4510753,37.5288989 97.6485873,37.5333295 L11.3778504,37.5333295 Z" id="Shape" fill-rule="nonzero"></path>
            <path d="M70.1815789,89 L22.3157895,89 C21.0658819,89 20.0526316,87.9926407 20.0526316,86.75 C20.0526316,83.0220779 17.0128807,80 13.2631579,80 C12.0132503,80 11,78.9926407 11,77.75 L11,55.25 C11,54.0073593 12.0132503,53 13.2631579,53 C17.0128807,53 20.0526316,49.9779221 20.0526316,46.25 C20.0526316,45.0073593 21.0658819,44 22.3157895,44 L85.6842105,44 C86.9341181,44 87.9473684,45.0073593 87.9473684,46.25 C87.9473684,49.9779221 90.9871193,53 94.7368421,53 C95.9867497,53 97,54.0073593 97,55.25 L97,58.7825 C97,59.4907039 96.6646132,60.1575776 96.0947368,60.5825 C95.5303924,61.000264 94.8027105,61.1333125 94.1257895,60.9425 L90.2105263,59.75 L72.1052632,64.8575 L72.1052632,82.475 C72.1077427,83.7563755 72.2136971,85.0354848 72.4221053,86.3 C72.5268506,86.9540561 72.3364292,87.6207716 71.9015789,88.1225 C71.4890734,88.6559865 70.8580506,88.9779183 70.1815789,89 Z M24.3526316,84.5 L67.5789474,84.5 C67.5789474,83.8475 67.5789474,83.2175 67.5789474,82.565 L67.5789474,63.26 C67.5402881,62.2204914 68.2234098,61.2901488 69.2310526,61.01 L88.5131579,55.5425 C86.0228219,53.9224739 84.2746792,51.3922997 83.6473684,48.5 L24.3526316,48.5 C23.4459997,52.9196497 19.9718113,56.3736393 15.5263158,57.275 L15.5263158,75.725 C19.9718113,76.6263607 23.4459997,80.0803503 24.3526316,84.5 Z" id="Shape" fill-rule="nonzero"></path>
            <path d="M54,82 C45.163444,82 38,74.836556 38,66 C38,57.163444 45.163444,50 54,50 C62.836556,50 70,57.163444 70,66 C70,74.836556 62.836556,82 54,82 Z M54,54.5714286 C47.6881743,54.5714286 42.5714286,59.6881743 42.5714286,66 C42.5714286,72.3118257 47.6881743,77.4285714 54,77.4285714 C60.3118257,77.4285714 65.4285714,72.3118257 65.4285714,66 C65.4285714,59.6881743 60.3118257,54.5714286 54,54.5714286 Z" id="Shape" fill-rule="nonzero"></path>
            <path d="M75.2181957,100.999679 L11.3778504,100.999679 C5.61190892,101.042663 0.729741351,96.7629682 0.0264376128,91.0490621 C-0.00881253759,90.5888474 -0.00881253759,90.1266171 0.0264376128,89.6664024 L0.0264376128,44.3332955 C0.0268339345,38.7482652 4.10249639,33.9961127 9.6297328,33.1360181 C10.2079471,33.0448347 10.7924681,32.9993604 11.3778504,33.0000188 L97.6485873,33.0000188 C100.639018,32.9945883 103.510797,34.1675299 105.639982,36.2640025 C107.050965,37.691688 108.074493,39.4546475 108.614052,41.3866435 C108.867912,42.3484336 108.997612,43.3386731 109,44.3332955 L109,62.4665382 C109,63.1799846 108.663557,63.8517947 108.091887,64.2798625 C107.525766,64.700719 106.795793,64.8347524 106.116741,64.6425274 L90.8377396,60.1998829 L72.6754792,65.3451905 L72.6754792,83.0931019 C72.7142343,88.1734846 74.2456424,93.1307872 77.0798274,97.350364 C77.5356693,98.0229394 77.5962922,98.8875978 77.2387471,99.6170193 C76.89341,100.432265 76.1043426,100.972223 75.2181957,100.999679 Z M11.3778504,37.5333295 C11.0225589,37.5099285 10.666109,37.5099285 10.3108176,37.5333295 C6.97088169,38.0620184 4.5252853,40.957302 4.56700271,44.3332955 L4.56700271,89.6664024 C4.56700271,89.9610676 4.56700271,90.2103996 4.56700271,90.4823983 C4.98262382,93.9161436 7.9136784,96.4913506 11.3778504,96.4663684 L71.2452012,96.4663684 C69.8766313,93.719397 68.9496093,90.7744939 68.4981593,87.7397453 C68.2517934,86.2412622 68.1302954,84.7249644 68.1349141,83.2064346 L68.1349141,63.7358652 C68.0961331,62.6886618 68.7814054,61.7514325 69.7922204,61.4692099 L90.2247633,55.6665722 C90.625682,55.5543284 91.0497972,55.5543284 91.4507159,55.6665722 L104.459435,59.4518866 L104.459435,44.3332955 C104.451104,43.7372801 104.374939,43.1441418 104.232407,42.5653043 C103.900408,41.4166042 103.292535,40.3661978 102.461586,39.5053196 C101.181821,38.2380232 99.4510753,37.5288989 97.6485873,37.5333295 L11.3778504,37.5333295 Z" id="Shape" fill-rule="nonzero"></path>
            <path d="M70.1815789,89 L22.3157895,89 C21.0658819,89 20.0526316,87.9926407 20.0526316,86.75 C20.0526316,83.0220779 17.0128807,80 13.2631579,80 C12.0132503,80 11,78.9926407 11,77.75 L11,55.25 C11,54.0073593 12.0132503,53 13.2631579,53 C17.0128807,53 20.0526316,49.9779221 20.0526316,46.25 C20.0526316,45.0073593 21.0658819,44 22.3157895,44 L85.6842105,44 C86.9341181,44 87.9473684,45.0073593 87.9473684,46.25 C87.9473684,49.9779221 90.9871193,53 94.7368421,53 C95.9867497,53 97,54.0073593 97,55.25 L97,58.7825 C97,59.4907039 96.6646132,60.1575776 96.0947368,60.5825 C95.5303924,61.000264 94.8027105,61.1333125 94.1257895,60.9425 L90.2105263,59.75 L72.1052632,64.8575 L72.1052632,82.475 C72.1077427,83.7563755 72.2136971,85.0354848 72.4221053,86.3 C72.5268506,86.9540561 72.3364292,87.6207716 71.9015789,88.1225 C71.4890734,88.6559865 70.8580506,88.9779183 70.1815789,89 Z M24.3526316,84.5 L67.5789474,84.5 C67.5789474,83.8475 67.5789474,83.2175 67.5789474,82.565 L67.5789474,63.26 C67.5402881,62.2204914 68.2234098,61.2901488 69.2310526,61.01 L88.5131579,55.5425 C86.0228219,53.9224739 84.2746792,51.3922997 83.6473684,48.5 L24.3526316,48.5 C23.4459997,52.9196497 19.9718113,56.3736393 15.5263158,57.275 L15.5263158,75.725 C19.9718113,76.6263607 23.4459997,80.0803503 24.3526316,84.5 Z" id="Shape" fill-rule="nonzero"></path>
            <path d="M54,82 C45.163444,82 38,74.836556 38,66 C38,57.163444 45.163444,50 54,50 C62.836556,50 70,57.163444 70,66 C70,74.836556 62.836556,82 54,82 Z M54,54.5714286 C47.6881743,54.5714286 42.5714286,59.6881743 42.5714286,66 C42.5714286,72.3118257 47.6881743,77.4285714 54,77.4285714 C60.3118257,77.4285714 65.4285714,72.3118257 65.4285714,66 C65.4285714,59.6881743 60.3118257,54.5714286 54,54.5714286 Z" id="Shape" fill-rule="nonzero"></path>
            <path d="M102.61086,40.9952367 C102.023735,40.9872644 101.460383,40.757191 101.029839,40.3495468 C99.7603486,39.0517795 98.0380543,38.3218505 96.2416051,38.3202358 L88.0654696,38.3202358 C87.2553439,38.3235196 86.5055465,37.8835516 86.1004868,37.1672182 L79.5957161,25.6370422 C77.4921538,26.3488386 75.2299648,26.4129969 73.0909453,25.821525 C70.9520391,25.2396114 69.0277904,24.0287387 67.557373,22.3394119 L40.9510537,38.0204513 C40.6045969,38.2139433 40.2166414,38.3169301 39.8217532,38.3202358 L17.2357437,38.3202358 C16.2227815,38.3096796 15.3406083,37.6118001 15.0776285,36.6129699 C14.8146488,35.6141397 15.2351976,34.5587115 16.1064432,34.0310104 L16.6485074,33.7081654 L71.1937205,1.53897429 C73.7902234,0.011959736 76.8746743,-0.398863121 79.7679624,0.396957568 C82.6612505,1.19277826 85.1261525,3.12999246 86.619965,5.78207907 L104.688773,37.5361839 C105.296346,38.5925824 104.988857,39.9496436 103.988606,40.626271 C103.580355,40.8977607 103.097065,41.0271875 102.61086,40.9952367 Z M89.3754582,33.7081654 L96.1512611,33.7081654 L97.1224595,33.7081654 L82.6899994,8.08811427 C80.820917,4.78877978 76.6901984,3.65449679 73.4523215,5.55147555 L25.6603252,33.7081654 L39.211931,33.7081654 L67.0604808,17.2891947 C67.58375,16.9942081 68.1968212,16.9118467 68.7770175,17.0585912 C69.3595585,17.217607 69.8556336,17.6078562 70.1547641,18.1424278 C71.0514376,19.7325687 72.5300911,20.8938823 74.2654178,21.3708771 C75.9967952,21.841426 77.8402312,21.5926836 79.392442,20.6790665 C79.9131031,20.371107 80.5325979,20.2880005 81.1135042,20.4481824 C81.6944104,20.6083644 82.1887001,20.9985914 82.4867253,21.5322995 L89.3754582,33.7081654 Z" id="Shape" fill-rule="nonzero"></path>
            <path d="M88.7910439,36.9986558 L40.3469645,36.9986558 C39.2926508,37.0348011 38.3526473,36.3386018 38.0789833,35.3189101 C37.80904,34.3207043 38.2473209,33.2660612 39.1449345,32.7538929 L67.6307789,16.2969246 C68.1562214,16.0065569 68.7718388,15.9254852 69.3544446,16.0699319 C69.939405,16.2264578 70.4375404,16.6105963 70.7379132,17.1367974 C71.6383107,18.7020395 73.1231053,19.8451689 74.8656391,20.3146948 C76.6042071,20.7778758 78.4552992,20.5330282 80.0139565,19.6337168 C80.53678,19.3305794 81.1588477,19.2487742 81.7421665,19.406448 C82.3254853,19.5641218 82.8218279,19.9482385 83.1210908,20.4735897 L90.6961481,33.5937658 C91.101284,34.2960836 91.101284,35.1613747 90.6961481,35.8636925 C90.3017304,36.5480574 89.5801508,36.9779375 88.7910439,36.9986558 Z M48.8065346,32.4588025 L84.8674363,32.4588025 L80.3314739,24.5140591 C78.2280677,25.2209552 75.9618522,25.2841792 73.8223677,24.6956533 C71.6745783,24.1228514 69.7423379,22.9309389 68.2658136,21.268064 L48.8065346,32.4588025 Z" id="Shape" fill-rule="nonzero"></path>
            <path d="M90.5899938,111.975152 C90.3888324,112.008283 90.1836971,112.008283 89.9825357,111.975152 C86.0968518,110.869298 82.4755348,108.972069 79.3407695,106.39987 C78.6433176,105.830963 77.9908626,105.284813 77.3609061,104.670394 C76.0071551,103.365161 74.7792101,101.932652 73.693659,100.392219 C73.4760124,100.120342 73.2803921,99.8311595 73.1086993,99.5274809 C70.6249935,95.8655338 69.0012891,91.6780322 68.3615267,87.284616 C68.1173786,85.7802028 67.9969744,84.2579044 68.0015515,82.7333651 L68.0015515,63.1857426 C67.9631197,62.1343949 68.6422229,61.1934566 69.6439382,60.9101171 L89.8925419,55.084516 C90.2898514,54.971828 90.7101486,54.971828 91.1074581,55.084516 L111.356062,60.9101171 C112.357777,61.1934566 113.03688,62.1343949 112.998448,63.1857426 L112.998448,82.7106089 C112.989777,96.2889992 104.099318,108.223097 91.1974519,111.975152 C90.9962905,112.008283 90.7911552,112.008283 90.5899938,111.975152 Z M72.591235,64.8924616 L72.591235,82.7106089 C72.6296412,87.8110968 74.1472631,92.7880175 76.955934,97.0242929 L77.0909247,97.2518554 L77.405903,97.7069805 C78.3444621,99.0355033 79.4067458,100.269985 80.5781842,101.393494 C81.1406454,101.9624 81.7031066,102.394769 82.2430694,102.849894 C84.7152578,104.893395 87.5473708,106.445357 90.5899938,107.423901 C101.249539,104.055166 108.528772,94.0971886 108.588753,82.8016339 L108.588753,64.8924616 L90.5899938,59.6357669 L72.591235,64.8924616 Z" id="Shape" fill-rule="nonzero"></path>
            <path d="M88.1077545,90.9999642 C87.4927405,91.0032553 86.901616,90.7797788 86.4649591,90.3789001 L80.680468,85.0248995 C79.7731773,84.1851306 79.7731773,82.8235962 80.6804682,81.9838273 C81.587759,81.1440584 83.0587681,81.1440583 83.9660589,81.9838272 L88.1077545,85.8387076 L98.0339411,76.6298266 C98.9412319,75.7900578 100.412241,75.7900578 101.319532,76.6298267 C102.226823,77.4695956 102.226823,78.83113 101.319532,79.6708989 L89.7505499,90.3789001 C89.313893,90.7797788 88.7227685,91.0032553 88.1077545,90.9999642 Z" id="Path"></path>
        </g>
    </g>
</svg>