<?xml version="1.0" encoding="UTF-8"?>
<svg width="150px" height="150px" viewBox="0 0 150 150" version="1.1" xmlns="http://www.w3.org/2000/svg" xmlns:xlink="http://www.w3.org/1999/xlink">
    <!-- Generator: Sketch 52.6 (67491) - http://www.bohemiancoding.com/sketch -->
    <title>Lula - Team</title>
    <desc>Created with Sketch.</desc>
    <g id="Lula---Team" stroke="none" stroke-width="1" fill="none" fill-rule="evenodd">
        <g id="Salesman-Insurance" transform="translate(30.000000, 17.000000)" fill="#333333" stroke="#333333">
            <path d="M88.9318182,116 L2.06818182,116 C0.92595654,116 0,115.068752 0,113.92 L0,92.9536 C0.0114065697,76.9677224 12.8940422,64.0114718 28.7890909,64 L62.2109091,64 C78.1059578,64.0114718 90.9885934,76.9677224 91,92.9536 L91,113.92 C91,115.068752 90.0740435,116 88.9318182,116 Z M4.13636364,111.84 L86.8636364,111.84 L86.8636364,92.9536 C86.840865,79.2699702 75.816791,68.1829015 62.2109091,68.16 L28.7890909,68.16 C15.183209,68.1829015 4.15913503,79.2699702 4.13636364,92.9536 L4.13636364,111.84 Z" id="Shape" stroke-width="0.7" fill-rule="nonzero"></path>
            <path d="M46,67.9839721 C45.8211192,68.0053426 45.6403094,68.0053426 45.4614286,67.9839721 C40.5094221,66.6523475 35.8610112,64.3862795 31.7692857,61.3091476 C22.5397599,54.5568355 17.0633515,43.8623669 17,32.4673135 L17,11.5157812 C17.0034957,10.6430738 17.5595112,9.86724685 18.3878571,9.57925805 L45.3164286,0.123256736 C45.7571634,-0.0410855785 46.2428366,-0.0410855785 46.6835714,0.123256736 L73.6121429,9.57925805 C74.4404888,9.86724685 74.9965043,10.6430738 75,11.5157812 L75,32.3231044 C74.6861753,49.2338854 63.0271778,63.8420758 46.5385714,67.9839721 C46.3596248,68.0042203 46.1789466,68.0042203 46,67.9839721 Z M21.1428571,12.9784742 L21.1428571,32.3231044 C21.1898937,42.4479928 26.053058,51.9531759 34.255,57.9511341 C37.7680371,60.6283934 41.7506073,62.6332678 46,63.86371 C60.4287817,60.0364806 70.5672787,47.1719958 70.8571429,32.3231044 L70.8571429,12.9784742 L46,4.24351875 L21.1428571,12.9784742 Z" id="Shape" stroke-width="0.7" fill-rule="nonzero"></path>
            <path d="M43.359563,43.9999649 C42.8092927,44.0031907 42.2803971,43.7841452 41.8897079,43.391215 L33.6088339,34.9946646 C32.7970554,34.1715462 32.7970554,32.8370076 33.6088339,32.0138892 C34.4206125,31.1907709 35.7367656,31.1907708 36.5485441,32.0138892 L43.359563,38.9410433 L58.4514558,23.6173388 C59.2632344,22.7942204 60.5793875,22.7942204 61.3911661,23.6173388 C62.2029446,24.4404572 62.2029446,25.7749958 61.3911661,26.5981142 L44.8294181,43.391215 C44.4387289,43.7841452 43.9098332,44.0031907 43.359563,43.9999649 Z" id="Path" stroke-width="0.7"></path>
            <path d="M52.7487784,78.999999 L40.2512216,78.999999 C39.3976304,79.0008491 38.6299288,78.4658299 38.3141003,77.6499993 L34.148248,66.9357161 C33.8928044,66.2769051 33.9707931,65.5307413 34.3565406,64.9428594 C34.7445282,64.3523335 35.3925338,63.9989286 36.0853693,64.0000024 L56.9146307,64.0000024 C57.6074662,63.9989286 58.2554718,64.3523335 58.6434594,64.9428594 C59.0292069,65.5307413 59.1071956,66.2769051 58.851752,66.9357161 L54.6858997,77.6499993 C54.3700712,78.4658299 53.6023696,79.0008491 52.7487784,78.999999 Z M41.6676114,74.7142857 L51.3323886,74.7142857 L53.8319,68.2857157 L39.251417,68.2857157 L41.6676114,74.7142857 Z" id="Shape" stroke-width="0.7" fill-rule="nonzero"></path>
            <path d="M46.4906482,115.999981 C46.0139569,116.002006 45.5510179,115.838921 45.1791997,115.537983 L34.7708781,107.138007 C34.201168,106.672138 33.9164889,105.938219 34.0214789,105.206013 L38.1848076,75.806098 C38.3299814,74.7703134 39.2086989,74.0002617 40.2456552,74.0001032 L52.7356411,74.0001032 C53.7804951,73.9897291 54.6710694,74.7623669 54.8173054,75.806098 L58.9806341,105.206013 C59.0807736,105.942119 58.787878,106.676813 58.2104183,107.138007 L47.8020967,115.537983 C47.4302784,115.838921 46.9673394,116.002006 46.4906482,115.999981 Z M38.392974,104.618014 L46.4906482,111.211995 L54.8173054,104.597014 L50.9245932,78.200091 L42.0567032,78.200091 L38.392974,104.618014 Z" id="Shape" stroke-width="0.1" fill-rule="nonzero"></path>
        </g>
    </g>
</svg>