<?xml version="1.0" encoding="UTF-8"?>
<svg width="150px" height="150px" viewBox="0 0 150 150" version="1.1" xmlns="http://www.w3.org/2000/svg" xmlns:xlink="http://www.w3.org/1999/xlink">
    <!-- Generator: Sketch 52.6 (67491) - http://www.bohemiancoding.com/sketch -->
    <title>Lula - Insurance</title>
    <desc>Created with Sketch.</desc>
    <g id="Lula---Insurance" stroke="none" stroke-width="1" fill="none" fill-rule="evenodd">
        <g id="Search-Insurance" transform="translate(19.000000, 18.000000)" fill="#333333" fill-rule="nonzero">
            <path d="M49.5,113.973867 C49.2989688,114.008711 49.0935502,114.008711 48.892519,113.973867 C19.9769984,105.523286 0.0519052933,78.7513491 0.0015515623,48.2825357 L0.0015515623,16.0290942 C-0.0368817241,14.9767486 0.64224706,14.0349171 1.64400008,13.7513087 L48.892519,0.0845962167 C49.2898435,-0.0281987389 49.7101565,-0.0281987389 50.107481,0.0845962167 L97.3559999,13.7513087 C98.3577529,14.0349171 99.0368817,14.9767486 98.9984484,16.0290942 L98.9984484,48.2825357 C98.9990531,52.4703078 98.6149106,56.6490602 97.8509844,60.7647998 C97.677644,61.6971756 96.9515971,62.4231371 96.0285415,62.5870281 C95.1342354,62.7201291 94.2480765,62.2984778 93.7786121,61.516469 C91.9656306,58.4033389 89.4622498,55.7597912 86.4663413,53.7947764 C85.7657432,53.3431889 85.3678668,52.537584 85.4313737,51.6992138 C85.4313737,50.583099 85.5663695,49.4214284 85.5663695,48.2825357 L85.5663695,24.6163452 L49.5,14.2068658 L13.5011284,24.6163452 L13.5011284,48.2825357 C13.4963059,71.4311827 27.9286799,92.0601708 49.5,99.7377083 C53.853525,98.1993538 57.9906713,96.0936846 61.8071142,93.4737984 C62.4788561,93.0237946 63.3369723,92.9716702 64.0570437,93.3371313 C67.2231226,94.9323489 70.7127201,95.7590089 74.2492242,95.7515839 C75.2396517,95.6887711 76.153766,96.2903018 76.4991537,97.2321444 C76.8392668,98.1049037 76.6159854,99.0995055 75.9366713,99.7377083 C68.486307,106.365626 59.6703083,111.228937 50.1299803,113.973867 C49.9212728,114.00714 49.7087075,114.00714 49.5,113.973867 Z M4.50141051,17.7374332 L4.50141051,48.2825357 C4.55336779,76.4738373 22.8311479,101.306304 49.5,109.418296 C56.3922231,107.346384 62.8832598,104.095351 68.6918984,99.8060419 C66.8162727,99.4247851 64.9895827,98.8287278 63.2470691,98.0293693 C59.1844658,100.697065 54.808107,102.839641 50.2199774,104.407168 C49.7529526,104.566864 49.2470474,104.566864 48.7800226,104.407168 C25.0001662,96.2758377 8.99437327,73.6929465 9.00126946,48.2825357 L9.00126946,22.8624504 C8.96283617,21.8101048 9.64196496,20.8682734 10.643718,20.584665 L48.892519,9.51462786 C49.2898435,9.4018329 49.7101565,9.4018329 50.107481,9.51462786 L88.356282,20.584665 C89.358035,20.8682734 90.0371638,21.8101048 89.9987305,22.8624504 L89.9987305,48.2825357 C89.9987305,49.1025385 89.9987305,49.9225412 89.9987305,50.7197661 C91.5392571,51.8478566 92.9638739,53.1298608 94.2510972,54.5464456 C94.4985895,52.4736609 94.4985895,50.3780983 94.4985895,48.2825357 L94.4985895,17.7374332 L49.5,4.64016706 L4.50141051,17.7374332 Z" id="Shape"></path>
            <path d="M49.5,104 C49.2558524,103.997234 49.0133715,103.958877 48.7800276,103.886111 C25.0316801,95.7655117 9.03323463,73.2294537 9.00155155,47.852539 L9.00155155,22.4324308 C8.96311853,21.3800843 9.64224259,20.438252 10.6439886,20.1546434 L48.8925233,9.08459629 C49.289845,8.97180124 49.710155,8.97180124 50.1074767,9.08459629 L88.3560114,20.1546434 C89.3577574,20.438252 90.0368815,21.3800843 89.9984484,22.4324308 L89.9984484,47.852539 C89.9984484,49.1280999 89.9984484,50.3808831 89.8634536,51.6336662 C89.8003839,52.4330707 89.3267242,53.1399997 88.61638,53.4949022 C87.9060357,53.8498047 87.0636801,53.8003838 86.3985864,53.3647846 C79.4040404,48.9529109 70.5866543,48.765496 63.4153645,52.8762727 C56.2440746,56.9870493 51.8665613,64.7381362 52.0050258,73.0801006 C52.1434903,81.422065 56.7757732,89.0198739 64.0794414,92.8843972 C64.7945301,93.2471125 65.265657,93.9668939 65.316894,94.7749608 C65.3649482,95.5805371 64.9883574,96.3517146 64.326932,96.8021916 C59.9638501,99.8005147 55.2179741,102.183693 50.2199724,103.886111 C49.9866285,103.958877 49.7441476,103.997234 49.5,104 Z M13.5013792,24.2774387 L13.5013792,47.852539 C13.4965567,71.0012068 27.9288301,91.6302134 49.5,99.3077578 C52.72587,98.1751821 55.8313146,96.7176865 58.7696449,94.9571838 C47.2612734,86.8743732 43.7694451,71.2240588 50.7287637,58.9180931 C57.6880823,46.6121275 72.7872201,41.7375658 85.4986208,47.6930938 L85.4986208,24.1863272 L49.5,13.7768385 L13.5013792,24.2774387 Z" id="Shape"></path>
            <path d="M105.257322,110.999886 C103.480201,111.004331 101.773811,110.292812 100.512056,109.021234 L88.4922077,96.8081798 C84.424559,99.2552059 79.7892726,100.558249 75.0622093,100.583538 C64.1803946,100.666465 54.3246076,94.0698821 50.1036429,83.878503 C45.8826783,73.687124 48.1307143,61.9150452 55.7965172,54.0671636 C63.4623201,46.2192821 75.0309171,43.8465543 85.0925639,48.058523 C95.1542107,52.2704916 101.72045,62.2347561 101.720756,73.2917953 C101.737436,78.1650714 100.453332,82.9517524 98.0051232,87.1423545 L110.024972,99.3554091 C111.289324,100.635632 112,102.374662 112,104.188322 C112,106.001982 111.289324,107.741012 110.024972,109.021234 C108.757725,110.298396 107.042189,111.010371 105.257322,110.999886 Z M88.8055743,91.6227488 C89.4005299,91.6192538 89.9723752,91.8565788 90.3947908,92.2822993 L103.690489,105.791712 C104.578571,106.56447 105.902397,106.512514 106.729168,105.672454 C107.555939,104.832394 107.607072,103.487289 106.846539,102.584932 L93.5508404,89.0755195 C92.7850275,88.2941235 92.6812482,87.0670987 93.3046237,86.1644004 C95.8808236,82.3830286 97.2556132,77.8907642 97.2440899,73.2917953 C97.230832,69.2982787 96.189059,65.3778403 94.2223403,61.920236 C92.4120396,58.8231416 89.9225496,56.1924555 86.9477579,54.233062 C79.9892142,49.8279202 71.2172129,49.6407913 64.0828351,53.7452954 C56.9484573,57.8497995 52.5934758,65.5890593 52.7312277,73.9182949 C52.8689795,82.2475305 57.4774191,89.8337461 64.7434939,93.6923726 C67.8920944,95.2581261 71.3553769,96.060011 74.8607593,96.0349138 C79.3848256,96.0322015 83.801894,94.6366185 87.5297244,92.032125 C87.9039838,91.7666885 88.3491602,91.6238468 88.8055743,91.6227488 Z" id="Shape"></path>
            <path d="M75,91 C65.0588745,91 57,82.9411255 57,73 C57,63.0588745 65.0588745,55 75,55 C84.9411255,55 93,63.0588745 93,73 C93,82.9411255 84.9411255,91 75,91 Z M75,59.5 C67.5441559,59.5 61.5,65.5441559 61.5,73 C61.5,80.4558441 67.5441559,86.5 75,86.5 C82.4558441,86.5 88.5,80.4558441 88.5,73 C88.5,65.5441559 82.4558441,59.5 75,59.5 Z" id="Shape"></path>
        </g>
    </g>
</svg>